<svg width="14" height="14" xmlns="http://www.w3.org/2000/svg"><g fill="none" fill-rule="evenodd"><path fill="#F7F7F7" opacity=".1" d="M0 0h14v14H0z"/><path d="M11.997 2.746l-.494-.008c-.012 0-1.121-.024-2.267-.49-1.176-.478-1.933-1.026-1.94-1.031L7 1l-.297.217c-.006.005-.764.553-1.94 1.032a7.108 7.108 0 01-2.265.489L2 2.746V7.75C2 10.282 5.252 13 7 13c1.75 0 5-2.718 5-5.25l-.003-5.004z" stroke="#408FFF"/><path stroke="#408FFF" stroke-linecap="round" stroke-linejoin="round" d="M5 7.25l1.5 1.5 2.5-3"/></g></svg>
