<svg width="14" height="14" xmlns="http://www.w3.org/2000/svg">
    <g fill="none" fill-rule="evenodd" stroke-linecap="round" stroke-linejoin="round">
        <path stroke="#FE7F40" d="M4.111 9.889V5.194"/>
        <path d="M10.23 4.866h1.329c.573 0 1.038.558 1.038 1.134 0 .068-.007.137-.02.204l-1.142 5.736a1.04 1.04 0 01-1.018.838H2.44a1.04 1.04 0 01-1.038-1.043V6A1.04 1.04 0 012.44 4.957H3.48c1.143 0 1.922-.782 2.336-2.346C6.354.5 9.191.73 9.191 2.61c0 1.564.346 2.316 1.038 2.255z" stroke="#242424"/>
    </g>
</svg>
