<svg width="12" height="12" xmlns="http://www.w3.org/2000/svg" xmlns:xlink="http://www.w3.org/1999/xlink">
    <defs>
        <filter x="-.1%" y="-.2%" width="100.1%" height="100.4%" filterUnits="objectBoundingBox" id="prefix__b">
            <feOffset dy="-.5" in="SourceAlpha" result="shadowOffsetInner1"/>
            <feComposite in="shadowOffsetInner1" in2="SourceAlpha" operator="arithmetic" k2="-1" k3="1" result="shadowInnerInner1"/>
            <feColorMatrix values="0 0 0 0 0.92 0 0 0 0 0.92 0 0 0 0 0.92 0 0 0 1 0" in="shadowInnerInner1"/>
        </filter>
        <path id="prefix__a" d="M0 2h343v118H0z"/>
    </defs>
    <g fill="none" fill-rule="evenodd">
        <path fill="#F5F5F5" d="M-18-468h375v812H-18z"/>
        <path fill="#FFF" d="M-18-468h375V932H-18z"/>
        <g transform="translate(-2 -34)">
            <use fill="#FFF" xlink:href="#prefix__a"/>
            <use fill="#000" filter="url(#prefix__b)" xlink:href="#prefix__a"/>
        </g>
        <g transform="translate(-2 -2)">
            <rect fill="#F7F7F7" width="132" height="16" rx="8"/>
            <g transform="translate(2 2)">
                <circle fill="#0A95FF" cx="6" cy="6" r="6"/>
                <path d="M3.75 2.5h4.5a.5.5 0 01.5.5v6a.5.5 0 01-.5.5h-4.5a.5.5 0 01-.5-.5V3a.5.5 0 01.5-.5z" fill="#FFF"/>
                <path stroke="#0A95FF" stroke-width=".75" stroke-linecap="round" stroke-linejoin="round" d="M4.75 6.5l2.5-2.25L7 4zM7.25 8h-2.5"/>
            </g>
        </g>
    </g>
</svg>
