<svg width="40" height="40" xmlns="http://www.w3.org/2000/svg" xmlns:xlink="http://www.w3.org/1999/xlink"><defs><linearGradient x1="0%" y1="100%" x2="100%" y2="0%" id="prefix__a"><stop stop-color="#00D7FF" offset="0%"/><stop stop-color="#0B90FF" offset="100%"/></linearGradient><linearGradient x1="50%" y1="0%" x2="50%" y2="100%" id="prefix__b"><stop stop-color="#FFF" stop-opacity=".7" offset="0%"/><stop stop-color="#FFF" stop-opacity=".8" offset="0%"/><stop stop-color="#FFF" stop-opacity=".3" offset="100%"/></linearGradient><filter x="-45.8%" y="-45.8%" width="208.3%" height="208.3%" filterUnits="objectBoundingBox" id="prefix__c"><feOffset dx="1" dy="1" in="SourceAlpha" result="shadowOffsetOuter1"/><feGaussianBlur stdDeviation="2" in="shadowOffsetOuter1" result="shadowBlurOuter1"/><feColorMatrix values="0 0 0 0 0 0 0 0 0 0 0 0 0 0 0 0 0 0 0.02 0" in="shadowBlurOuter1"/></filter><path id="prefix__d" d="M19 10v12H7z"/></defs><g transform="matrix(-1 0 0 1 40 0)" fill="none" fill-rule="evenodd"><rect fill="url(#prefix__a)" width="40" height="40" rx="1"/><path d="M33 10v30H7V22l12-12h14zm-4.75 23h-16.5a.75.75 0 100 1.5h16.5a.75.75 0 100-1.5zm0-6h-16.5a.75.75 0 100 1.5h16.5a.75.75 0 100-1.5zm0-6h-4.5a.75.75 0 100 1.5h4.5a.75.75 0 100-1.5z" fill="url(#prefix__b)"/><use fill="#000" filter="url(#prefix__c)" xlink:href="#prefix__d"/><use fill="#E6FFFF" xlink:href="#prefix__d"/></g></svg>
