<svg width="12" height="12" xmlns="http://www.w3.org/2000/svg" xmlns:xlink="http://www.w3.org/1999/xlink"><defs><filter x="-.1%" y="-.9%" width="100.2%" height="101.8%" filterUnits="objectBoundingBox" id="prefix__b"><feOffset dy=".5" in="SourceAlpha" result="shadowOffsetInner1"/><feComposite in="shadowOffsetInner1" in2="SourceAlpha" operator="arithmetic" k2="-1" k3="1" result="shadowInnerInner1"/><feColorMatrix values="0 0 0 0 0.921568627 0 0 0 0 0.921568627 0 0 0 0 0.921568627 0 0 0 1 0" in="shadowInnerInner1"/></filter><path id="prefix__a" d="M0 0h210v28H0z"/></defs><g fill="none" fill-rule="evenodd"><path fill="#F5F5F5" d="M-84-420h375v812H-84z"/><path fill="#F5F5F5" d="M-84-420h375v812H-84z"/><path d="M211.744-74H-1.744c-3.567 0-4.86.371-6.163 1.069a7.27 7.27 0 00-3.024 3.024C-11.63-68.604-12-67.311-12-63.744V9.744c0 3.567.371 4.86 1.069 6.163a7.27 7.27 0 003.024 3.024C-6.604 19.63-5.311 20-1.744 20h213.488c3.567 0 4.86-.371 6.163-1.069a7.27 7.27 0 003.024-3.024c.698-1.303 1.069-2.596 1.069-6.163v-73.488c0-3.567-.371-4.86-1.069-6.163a7.27 7.27 0 00-3.024-3.024c-1.303-.698-2.596-1.069-6.163-1.069z" fill="#FFF"/><g transform="matrix(-1 0 0 1 210 -8)"><use fill="#FFF" xlink:href="#prefix__a"/><use fill="#000" filter="url(#prefix__b)" xlink:href="#prefix__a"/></g><g transform="matrix(-1 0 0 1 12 0)"><rect fill="#BFBFBF" x="1" y=".5" width="10" height="11" rx="1"/><path stroke="#FFF" stroke-linecap="round" d="M8.5 6h-5M8.5 8.5h-5M8.5 3.5H6"/></g></g></svg>
