<svg width="60" height="60" xmlns="http://www.w3.org/2000/svg"><g fill="none" fill-rule="evenodd"><path d="M7.692 0h44.616c2.675 0 3.645.278 4.623.801a5.452 5.452 0 012.268 2.268c.523.978.801 1.948.801 4.623v44.616c0 2.675-.278 3.645-.801 4.623a5.452 5.452 0 01-2.268 2.268c-.978.523-1.948.801-4.623.801H7.692c-2.675 0-3.645-.278-4.623-.801A5.452 5.452 0 01.801 56.93C.278 55.953 0 54.983 0 52.308V7.692c0-2.675.278-3.645.801-4.623A5.452 5.452 0 013.07.801C4.047.278 5.017 0 7.692 0z" fill="#F4F6F8"/><g fill-rule="nonzero"><path d="M34.69 24.94l-1.934-2.957h-5.815l-1.971 2.956h-4.013a.943.943 0 00-.697.293.97.97 0 00-.29.709v10.828c0 .272.097.505.29.697.193.193.425.29.697.29h17.745a.956.956 0 00.7-.282.934.934 0 00.285-.688v-10.83a.988.988 0 00-.293-.715.933.933 0 00-.693-.3h-4.013l.002-.002z" fill="#3C3C3C"/><path d="M25.887 20.01h7.887l1.972 2.958h2.957c.817 0 1.513.294 2.091.882.578.589.867 1.29.867 2.107v10.828c0 .816-.289 1.51-.867 2.083a2.861 2.861 0 01-2.09.859H20.958a2.848 2.848 0 01-2.091-.867A2.851 2.851 0 0118 36.77V25.94c0-.815.29-1.514.867-2.097a2.833 2.833 0 012.09-.875h2.958l1.97-2.957h.001z" fill="#3C3C3C"/><path d="M29.83 25.926c.667 0 1.306.13 1.914.392a4.973 4.973 0 011.571 1.052c.439.439.79.962 1.052 1.571.261.604.395 1.256.393 1.914a4.825 4.825 0 01-.393 1.914 4.96 4.96 0 01-1.052 1.57c-.44.44-.963.79-1.57 1.053a4.792 4.792 0 01-1.915.392c-.668 0-1.307-.13-1.914-.392a4.986 4.986 0 01-1.571-1.052c-.44-.44-.79-.963-1.052-1.571a4.823 4.823 0 01-.392-1.914 4.782 4.782 0 01.392-1.914 5 5 0 011.052-1.571c.438-.44.962-.79 1.571-1.052a4.797 4.797 0 011.914-.392z" fill="#F4F6F8"/><path d="M29.83 27.897a2.85 2.85 0 00-2.09.866 2.849 2.849 0 00-.867 2.091c0 .816.289 1.513.866 2.09a2.85 2.85 0 002.091.867 2.85 2.85 0 002.09-.866 2.85 2.85 0 00.867-2.09c0-.817-.288-1.514-.866-2.092a2.85 2.85 0 00-2.09-.866z" fill="#3C3C3C"/></g></g></svg>
