<svg width="60" height="60" xmlns="http://www.w3.org/2000/svg"><g fill="none" fill-rule="evenodd"><path d="M7.692 0h44.616c2.675 0 3.645.278 4.623.801a5.452 5.452 0 012.268 2.268c.523.978.801 1.948.801 4.623v44.616c0 2.675-.278 3.645-.801 4.623a5.452 5.452 0 01-2.268 2.268c-.978.523-1.948.801-4.623.801H7.692c-2.675 0-3.645-.278-4.623-.801A5.452 5.452 0 01.801 56.93C.278 55.953 0 54.983 0 52.308V7.692c0-2.675.278-3.645.801-4.623A5.452 5.452 0 013.07.801C4.047.278 5.017 0 7.692 0z" fill="#F4F6F8"/><g fill="#3C3C3C" fill-rule="nonzero"><path d="M42.68 24.407a1.491 1.491 0 00-1.573.147l-3.741 2.829v-2.221a3.163 3.163 0 00-3.16-3.16H22.16a3.163 3.163 0 00-3.16 3.16v10.745a3.163 3.163 0 003.16 3.16h12.046a3.163 3.163 0 003.16-3.16v-2.22l3.74 2.827a1.495 1.495 0 002.405-1.198v-9.57c0-.571-.318-1.085-.83-1.34z"/><path d="M35.594 35.907a1.39 1.39 0 01-1.388 1.388H22.16a1.39 1.39 0 01-1.388-1.388V25.162a1.39 1.39 0 011.388-1.388h12.046a1.39 1.39 0 011.388 1.388v10.745zM41.739 34.771l-4.373-3.306v-1.861l4.373-3.306z"/></g></g></svg>
