<svg width="60" height="60" xmlns="http://www.w3.org/2000/svg"><g fill="none" fill-rule="evenodd"><path d="M7.692 0h44.616c2.675 0 3.645.278 4.623.801a5.452 5.452 0 012.268 2.268c.523.978.801 1.948.801 4.623v44.616c0 2.675-.278 3.645-.801 4.623a5.452 5.452 0 01-2.268 2.268c-.978.523-1.948.801-4.623.801H7.692c-2.675 0-3.645-.278-4.623-.801A5.452 5.452 0 01.801 56.93C.278 55.953 0 54.983 0 52.308V7.692c0-2.675.278-3.645.801-4.623A5.452 5.452 0 013.07.801C4.047.278 5.017 0 7.692 0z" fill="#F4F6F8"/><g fill-rule="nonzero"><path d="M30.812 40.6v2.15a.771.771 0 01-1.543 0V40.6c-5.178-.395-9.257-4.72-9.257-10a.771.771 0 011.543 0 8.486 8.486 0 008.486 8.486 8.486 8.486 0 008.485-8.486.771.771 0 011.543 0c0 5.28-4.079 9.605-9.257 10zM30.041 18a6.943 6.943 0 016.942 6.943V30.6a6.943 6.943 0 11-13.885 0v-5.657A6.943 6.943 0 0130.04 18z" fill="#3C3C3C"/><path d="M30.04 19.543a5.4 5.4 0 00-5.4 5.4V30.6a5.4 5.4 0 1010.8 0v-5.657a5.4 5.4 0 00-5.4-5.4z" fill="#3C3C3C"/><path d="M30.658 29.091c.265 0 .51.147.642.386a.798.798 0 010 .772.737.737 0 01-.642.385H27.14c-.41 0-.742-.345-.742-.771 0-.426.333-.772.742-.772h3.517zM32.828 26.006a.771.771 0 010 1.543h-5.657a.771.771 0 010-1.543h5.657z" fill="#F4F6F8"/></g></g></svg>
