<svg width="49" height="14" xmlns="http://www.w3.org/2000/svg"><defs><linearGradient x1="0%" y1="50%" x2="100%" y2="50%" id="prefix__a"><stop stop-color="#45E6AB" offset="0%"/><stop stop-color="#33D69B" offset="100%"/></linearGradient></defs><g fill="none" fill-rule="evenodd"><rect fill="url(#prefix__a)" width="49" height="14" rx="1.5"/><path d="M11.998 3.455l-.396-.007c-.01 0-.896-.02-1.813-.407a7.944 7.944 0 01-1.552-.86L7.999 2l-.237.18a7.944 7.944 0 01-1.552.86 5.487 5.487 0 01-1.812.408L4 3.455v4.203C4 9.768 6.602 12 8 12c1.4 0 4-2.232 4-4.342l-.002-4.203z" fill="#FFF" fill-rule="nonzero"/><text font-family="PingFangSC-Regular, PingFang SC" font-size="10" fill="#FFF"><tspan x="15" y="11">已认证</tspan></text><path stroke="#42E3A8" stroke-linecap="round" stroke-linejoin="round" d="M6 7.25l1.5 1.5 2.5-3"/></g></svg>
