<svg width="18" height="18" xmlns="http://www.w3.org/2000/svg"><g fill="#242424" fill-rule="nonzero"><path d="M13.91 9.455a.455.455 0 11-.91 0 .455.455 0 01.91 0"/><path d="M11.967 14.596a6.697 6.697 0 112.506-2.413.522.522 0 00.176.714.522.522 0 00.714-.176A7.734 7.734 0 008.733 1 7.728 7.728 0 001 8.73a7.735 7.735 0 0011.469 6.776.518.518 0 00.203-.706.514.514 0 00-.705-.205z"/><path d="M8 5.519v3.83c0 .144.059.28.163.379l3.387 3.195a.52.52 0 00.714-.756L8.877 8.97l.163.379v-3.83a.52.52 0 00-1.04 0z"/></g></svg>
