<svg width="280" height="20" xmlns="http://www.w3.org/2000/svg"><defs><linearGradient x1="100%" y1="50%" x2="0%" y2="50%" id="prefix__a"><stop stop-color="#3584F2" stop-opacity=".2" offset="0%"/><stop stop-color="#3594F2" stop-opacity=".05" offset="100%"/></linearGradient><linearGradient x1="100%" y1="50%" x2="0%" y2="50%" id="prefix__b"><stop stop-color="#3584F2" stop-opacity=".2" offset="0%"/><stop stop-color="#3594F2" stop-opacity=".05" offset="100%"/></linearGradient></defs><g fill="none" fill-rule="evenodd"><text font-family="PingFangSC-Regular, PingFang SC" font-size="12" fill="#999"><tspan x="24" y="14.5">领先技术</tspan></text><path d="M12.497 19C9.805 18.248 8 16.15 8 13.776V9.59c.19.03.392.045.602.045a5.6 5.6 0 001.539-.234A5.544 5.544 0 0012.525 8c.443.403 1.267 1.048 2.327 1.396.497.163.993.246 1.475.246.235 0 .464-.02.673-.057v4.191c0 2.31-1.85 4.455-4.503 5.224z" fill="url(#prefix__a)"/><path d="M7.746 18C4.007 16.923 1.5 13.92 1.5 10.52V4.528c.263.043.545.065.836.065.664 0 1.384-.112 2.137-.335A7.654 7.654 0 007.785 2.25c.615.578 1.76 1.5 3.232 2 .69.232 1.38.351 2.048.351.327 0 .645-.028.935-.082v6.001c0 3.307-2.57 6.379-6.254 7.48z" stroke="#999" stroke-linejoin="round"/><path stroke="#408FFF" opacity=".7" stroke-linecap="round" stroke-linejoin="round" d="M7.75 7v6m0-6L6.5 8m3 5H6"/><text font-family="PingFangSC-Regular, PingFang SC" font-size="12" fill="#999" transform="translate(208)"><tspan x="24" y="14.5">精准诊断</tspan></text><g transform="translate(208.136 1.5)"><rect stroke="#999" x="1.364" y="1.5" width="14" height="14" rx="7"/><rect stroke="#408FFF" opacity=".7" x="6.364" y="6.5" width="4" height="4" rx="2"/><rect fill="url(#prefix__b)" x="5.864" y="6.5" width="11" height="11" rx="5"/><path stroke="#999" stroke-linecap="round" stroke-linejoin="round" d="M14.364 8.5h2m-16 0h2m6-8v2m0 12v2"/></g><g><text font-family="PingFangSC-Regular, PingFang SC" font-size="12" fill="#999" transform="translate(104)"><tspan x="24" y="14.5">专业服务</tspan></text><g transform="translate(104)"><path d="M0 0h18v20H0z"/><path fill="url(#prefix__b)" d="M9.688 8h6.125L18 10.739 12.75 18.5 7.5 10.739z"/><path stroke="#999" stroke-linejoin="round" d="M4.5 2.75h8l3.5 4-7.5 10-7.5-10z"/><rect fill="#1DA1F2" opacity=".7" x="5.25" y="6.5" width="6.5" height="1" rx=".5"/></g></g></g></svg>
