<svg width="375" height="66" xmlns="http://www.w3.org/2000/svg" xmlns:xlink="http://www.w3.org/1999/xlink"><defs><linearGradient x1="14.939%" y1="50%" x2="100%" y2="50%" id="prefix__c"><stop stop-color="#A6FCB1" offset="0%"/><stop stop-color="#66FCCF" offset="49.145%"/><stop stop-color="#2EE6A2" offset="100%"/></linearGradient><linearGradient x1="0%" y1="34.18%" x2="98.189%" y2="65.247%" id="prefix__d"><stop stop-color="#45E6AB" offset="0%"/><stop stop-color="#33D69B" offset="100%"/></linearGradient><linearGradient x1="100%" y1="57.883%" x2="69.645%" y2="42.117%" id="prefix__f"><stop stop-color="#1E1C36" offset="0%"/><stop stop-color="#464964" offset="100%"/></linearGradient><linearGradient x1="0%" y1="24.758%" x2="98.189%" y2="74.328%" id="prefix__g"><stop stop-color="#45E6AB" offset="0%"/><stop stop-color="#33D69B" offset="100%"/></linearGradient><filter x="-2.2%" y="-13.9%" width="104.4%" height="127.8%" filterUnits="objectBoundingBox" id="prefix__b"><feOffset in="SourceAlpha" result="shadowOffsetOuter1"/><feGaussianBlur stdDeviation="2.5" in="shadowOffsetOuter1" result="shadowBlurOuter1"/><feComposite in="shadowBlurOuter1" in2="SourceAlpha" operator="out" result="shadowBlurOuter1"/><feColorMatrix values="0 0 0 0 0 0 0 0 0 0 0 0 0 0 0 0 0 0 0.08 0" in="shadowBlurOuter1"/></filter><path d="M7.996 0h327a8 8 0 018 8v46h-343V8a8 8 0 018-8z" id="prefix__a"/></defs><g fill="none" fill-rule="evenodd"><g transform="translate(16.004 12)"><mask id="prefix__e" fill="#fff"><use xlink:href="#prefix__a"/></mask><use fill="#000" filter="url(#prefix__b)" xlink:href="#prefix__a"/><use fill="url(#prefix__c)" xlink:href="#prefix__a"/><path fill="url(#prefix__d)" opacity=".35" mask="url(#prefix__e)" d="M-42 0h70l26 54h-70z"/><path fill="url(#prefix__f)" opacity=".02" mask="url(#prefix__e)" d="M233 0h110l26 54H259z"/><path fill="url(#prefix__g)" opacity=".15" mask="url(#prefix__e)" d="M28 0h50l26 54H54z"/></g><text font-family="PingFangSC-Semibold, PingFang SC" font-size="14" font-weight="500" fill="#242424" transform="translate(16.004 12)"><tspan x="56" y="24">我的医生</tspan></text><text font-family="PingFangSC-Light, PingFang SC" font-size="10" font-weight="300" fill="#242424" transform="translate(16.004 12)"><tspan x="56" y="39.5">随时随地，与您的专属医生即时沟通</tspan></text><g transform="translate(271.004 29)"><rect fill="#FFF" width="72" height="20" rx="10"/><text font-family="PingFangSC-Regular, PingFang SC" font-size="11" fill="#242424"><tspan x="11" y="14">立即查看</tspan></text><path d="M58.25 6.25l3.5 3.75-3.5 3.75" stroke="#242424" stroke-linecap="round" stroke-linejoin="round"/></g><g transform="translate(32.004 24)"><circle fill="#FFF" opacity=".6" cx="15" cy="15" r="15"/><path d="M5.356 25.103c.026-3.217 2.256-5.932 5.244-6.7-.21.33-.32.711-.32 1.1v2.416a1.482 1.482 0 00.418 2.903 1.482 1.482 0 00.51-2.872v-2.014c0-.66.24-1.265.638-1.733l.026-.002c.19 4.394 1.54 7.799 3.177 7.799 1.636 0 2.985-3.405 3.177-7.798.395.027.781.086 1.156.176.383.436.614.984.658 1.562a2.477 2.477 0 00-2.033 2.43v1.328a.796.796 0 00.519 1.4.796.796 0 00.501-1.415V22.3c0-.804.658-1.463 1.463-1.463.804 0 1.46.658 1.46 1.463v1.357a.796.796 0 00.467 1.442h.001a.796.796 0 00.519-1.4V22.37a2.478 2.478 0 00-1.96-2.416v-.242c0-.29-.061-.567-.171-.819 2.277 1.118 3.867 3.446 3.918 6.134A13.92 13.92 0 0029 14.974C29 7.256 22.732 1 15 1S1 7.256 1 14.974c0 3.986 1.673 7.583 4.356 10.129zM15 30C6.716 30 0 23.284 0 15 0 6.716 6.716 0 15 0c8.284 0 15 6.716 15 15 0 8.284-6.716 15-15 15zm.19-18.963c2.276 0 4.12.683 4.12 1.524a.6.6 0 01-.006.086h.007l-.85 3.905c-.242 1.538-1.618 2.726-3.266 2.726-1.542 0-2.846-1.04-3.206-2.434l-.003-.011a3.285 3.285 0 01-.045-.209l-.87-3.977h.006a.58.58 0 01-.006-.085c0-.842 1.844-1.525 4.12-1.525zm-.02-.375c-1.992 0-3.683.668-4.286 1.596h-.118V8.34c0-.87 1.98-1.574 4.425-1.574 2.444 0 4.425.704 4.425 1.574V12.258h-.16c-.603-.928-2.294-1.596-4.286-1.596zm-1.227-2.045c0 .168.136.305.303.305h.645v.652c0 .168.137.305.303.305a.305.305 0 00.303-.305v-.651h.646a.305.305 0 000-.611h-.646V7.66a.305.305 0 00-.303-.305.305.305 0 00-.303.305v.652h-.646a.305.305 0 00-.302.305z" fill="#242424" fill-rule="nonzero"/></g><path d="M187 66H.005L0 59c60.325 5.666 122.88 7 187 7zm188-7l-.002 7H187.001c64.474 0 127.365-1.273 187.999-7z" fill="#F5F5F5"/></g></svg>
