<svg width="60" height="60" xmlns="http://www.w3.org/2000/svg"><g fill="none" fill-rule="evenodd"><circle fill="#0C6" cx="30" cy="30" r="30"/><path d="M39.247 44.144l-.142.01c-3.287.132-7.994-2.542-12.591-7.155l-1.698-1.703c-4.598-4.613-7.218-9.29-7.01-12.51.148-2.273 3.3-4.469 5.202-4.643.937-.086 1.32.349 1.465.617 1.256 1.815 2.9 5.021 3.018 6.215l.009.085-.023.082c-.179.65-.682.999-1.126 1.307-.585.405-.915.667-.896 1.33.006.202.264 1.097 3.304 4.207l1.296 1.3c3.035 2.974 3.927 3.243 4.131 3.253.667.031.95-.286 1.376-.85.324-.428.69-.914 1.357-1.075l.084-.02.086.01c1.213.142 4.443 1.825 6.308 3.124.266.143.747.595.504 1.714-.381 1.756-2.503 4.504-4.654 4.702z" fill="#FFF"/></g></svg>
