<svg width="60" height="60" xmlns="http://www.w3.org/2000/svg"><g fill="none" fill-rule="evenodd" opacity=".6"><circle stroke="#FFF" cx="30" cy="30" r="29.5"/><path d="M25.834 21.751l8.34 7.506a1 1 0 010 1.486l-8.34 7.506a.5.5 0 01-.834-.372V22.123a.5.5 0 01.834-.372z" fill="#FFF"/><path d="M37 36.003A9.956 9.956 0 0039.002 30c0-2.25-.744-4.328-1.999-6M42.23 39.002A15.926 15.926 0 0045.003 30c0-3.336-1.021-6.434-2.768-8.998" stroke="#FFF" stroke-width="1.25" stroke-linecap="round" stroke-linejoin="round"/><path d="M25 27c-6.667 1-10 4.667-10 11 2.333-4.667 5.667-7 10-7v-4z" fill="#FFF"/></g></svg>
