<svg width="60" height="60" xmlns="http://www.w3.org/2000/svg"><g fill="none" fill-rule="evenodd"><circle stroke="#FFF" opacity=".6" cx="30" cy="30" r="29.5"/><path d="M15 25.5h6v9h-6a1 1 0 01-1-1v-7a1 1 0 011-1zM21 25.5l6.21-4.435a.5.5 0 01.79.407v17.056a.5.5 0 01-.79.407L21 34.5v-9z" fill="#FFF"/><path d="M31.481 35.005A8.958 8.958 0 0033 30c0-1.85-.558-3.57-1.515-4.999M36.498 38.298A14.93 14.93 0 0039 30a14.93 14.93 0 00-2.502-8.298M41.577 41.495A20.902 20.902 0 0045 30c0-4.244-1.26-8.195-3.424-11.498" stroke="#FFF" stroke-width="1.25" stroke-linecap="round" stroke-linejoin="round"/></g></svg>
