<svg width="60" height="60" xmlns="http://www.w3.org/2000/svg"><g fill="none" fill-rule="evenodd"><circle fill="#FF6F59" cx="30" cy="30" r="30"/><path d="M14.875 27.952l.093-.107c2.23-2.419 7.45-3.856 13.962-3.845l2.405.004c6.513.01 11.673 1.465 13.803 3.89 1.503 1.71.826 5.492-.396 6.96-.601.724-1.18.687-1.471.6-2.172-.395-5.602-1.5-6.53-2.26l-.066-.054-.041-.075c-.333-.585-.224-1.188-.128-1.72.126-.7.175-1.118-.308-1.574-.147-.139-.962-.59-5.31-.639l-1.837-.002c-4.249.042-5.07.483-5.22.62-.495.45-.47.875-.373 1.574.074.532.159 1.135-.199 1.72l-.045.074-.068.053c-.958.758-4.432 1.851-6.67 2.252-.288.086-.949.107-1.568-.856-.972-1.511-1.415-4.955-.033-6.615z" fill="#FFF"/></g></svg>
