<svg width="24" height="24" xmlns="http://www.w3.org/2000/svg"><path d="M2.074 10.577h0l.061-.07C3.6 8.93 7.025 7.993 11.298 8l1.578.002c4.274.007 7.66.956 9.058 2.537.986 1.116.543 3.582-.26 4.54-.394.472-.774.448-.965.391-1.426-.258-3.677-.978-4.285-1.474l-.043-.035-.028-.049c-.218-.382-.147-.775-.084-1.122.084-.457.115-.73-.202-1.027-.096-.09-.631-.384-3.485-.416l-1.205-.001c-2.788.027-3.326.315-3.426.404-.324.294-.308.57-.244 1.026.049.347.104.74-.13 1.122l-.03.049-.045.034c-.629.495-2.909 1.207-4.377 1.469-.19.056-.623.07-1.029-.558-.638-.986-.928-3.232-.022-4.315z" stroke="#FFF" stroke-width="1.25" fill="none" fill-rule="evenodd"/></svg>
