<svg width="16" height="16" xmlns="http://www.w3.org/2000/svg"><defs><linearGradient x1="9.5%" y1="0%" x2="90.5%" y2="100%" id="prefix__a"><stop stop-color="#00D7FF" offset="0%"/><stop stop-color="#0B90FF" offset="100%"/></linearGradient><linearGradient x1="50%" y1="0%" x2="50%" y2="100%" id="prefix__b"><stop stop-color="#FFF" offset="0%"/><stop stop-color="#408FFF" offset="100%"/></linearGradient></defs><g fill="none" fill-rule="evenodd"><path stroke="#FFF" stroke-width="1.143" fill="url(#prefix__a)" stroke-linejoin="round" d="M8 15.273l6.545-3.818v-6.91L8 .727 1.455 4.545v6.91z"/><g transform="translate(4 5.25)"><rect fill="#FFF" transform="rotate(-32 2.646 3.07)" x="2" width="1.293" height="6.141" rx=".646"/><rect fill="#FFF" transform="rotate(32 5.232 3.07)" x="4.586" width="1.293" height="6.141" rx=".646"/><path d="M5.67.125c.356 0 .646.29.646.647v2.976c-.172.653-.603.939-1.293.856V.772c0-.357.29-.647.646-.647z" fill="url(#prefix__b)" opacity=".4" transform="rotate(32 5.67 2.372)"/></g></g></svg>
