<svg width="60" height="60" xmlns="http://www.w3.org/2000/svg"><g fill="none" fill-rule="evenodd"><path d="M7.692 0h44.616c2.675 0 3.645.278 4.623.801a5.452 5.452 0 012.268 2.268c.523.978.801 1.948.801 4.623v44.616c0 2.675-.278 3.645-.801 4.623a5.452 5.452 0 01-2.268 2.268c-.978.523-1.948.801-4.623.801H7.692c-2.675 0-3.645-.278-4.623-.801A5.452 5.452 0 01.801 56.93C.278 55.953 0 54.983 0 52.308V7.692c0-2.675.278-3.645.801-4.623A5.452 5.452 0 013.07.801C4.047.278 5.017 0 7.692 0z" fill="#F4F6F8"/><g fill-rule="nonzero"><path d="M38.73 19.015H20.689a3.667 3.667 0 00-3.663 3.663V37.72a3.667 3.667 0 003.663 3.663h18.043a3.667 3.667 0 003.663-3.663V22.678a3.667 3.667 0 00-3.663-3.663z" fill="#F4F6F8"/><path d="M40.537 28.932v8.788c0 .997-.81 1.807-1.806 1.807H20.688a1.8 1.8 0 01-.54-.082c1.594-1.56 4.186-3.445 8.42-2.69a6.78 6.78 0 001.19.112c1.115 0 2.067-.326 2.887-.983.926-.742 1.558-1.814 2.169-2.85 1.206-2.05 2.352-3.993 5.723-4.102zm-1.806-8.06c.996 0 1.806.81 1.806 1.806v4.397c-1.839.049-3.347.552-4.587 1.526-1.265.994-2.047 2.32-2.736 3.49-.55.934-1.07 1.816-1.73 2.345-.453.363-1.157.747-2.59.492-5.04-.899-8.158 1.359-9.98 3.128a1.8 1.8 0 01-.033-.336V22.678c0-.996.81-1.806 1.807-1.806h18.043zm-14.43 7.73a2.782 2.782 0 002.78-2.78 2.782 2.782 0 00-2.78-2.78 2.782 2.782 0 00-2.779 2.78 2.782 2.782 0 002.78 2.78zm0-3.88a1.101 1.101 0 010 2.2 1.101 1.101 0 010-2.2z" fill="#3C3C3C"/></g></g></svg>
