<svg width="16" height="17" xmlns="http://www.w3.org/2000/svg">
    <g stroke="#FE7F40" fill="none" fill-rule="evenodd" stroke-linecap="round" stroke-linejoin="round">
        <path d="M7.804 13.603l-3.457 1.818a.421.421 0 01-.611-.444l.66-3.85a.421.421 0 00-.121-.373L1.478 8.028a.421.421 0 01.233-.718l3.866-.562a.421.421 0 00.317-.23l1.728-3.503a.421.421 0 01.756 0l1.728 3.503c.062.124.18.21.317.23l3.866.562a.421.421 0 01.233.718l-2.797 2.726a.421.421 0 00-.121.373l.66 3.85a.421.421 0 01-.61.444l-3.458-1.818a.421.421 0 00-.392 0zM6.75 10.35a3.733 3.733 0 002.5 0"/>
    </g>
</svg>
