<svg width="16" height="17" xmlns="http://www.w3.org/2000/svg">
    <g fill="#FFF" fill-rule="evenodd">
        <path d="M8.371 1.649l5.968 2.387a.5.5 0 010 .928L8.371 7.351a1 1 0 01-.742 0L1.66 4.964a.5.5 0 010-.928l5.968-2.387a1 1 0 01.742 0zM13.001 7.5l1.338.536a.5.5 0 010 .928l-5.968 2.387a1 1 0 01-.742 0L1.66 8.964a.5.5 0 010-.928L2.998 7.5l4.63 1.851a1 1 0 00.622.04l.121-.04 4.63-1.85zM13.001 11.5l1.338.536a.5.5 0 010 .928l-5.968 2.387a1 1 0 01-.742 0L1.66 12.964a.5.5 0 010-.928l1.337-.536 4.63 1.851a1 1 0 00.622.04l.121-.04 4.63-1.85z"/>
    </g>
</svg>
