<svg width="14" height="15" xmlns="http://www.w3.org/2000/svg">
    <path d="M12.32 2.816c-.14-.14-.327-.28-.513-.28a5.532 5.532 0 00-1.96.233A6.256 6.256 0 007.14.535a.957.957 0 00-.513 0C5.367 1 4.34 1.93 3.593 3.188a8.688 8.688 0 00-1.586-.279c-.234 0-.514.093-.654.326A8.182 8.182 0 000 7.797c0 2.56 1.493 4.888 3.733 5.958 1.027.512 2.1.745 3.267.745 1.167 0 2.24-.233 3.267-.745C12.507 12.685 14 10.31 14 7.75a8.083 8.083 0 00-1.68-4.934zm-5.46-.838c.7.326 1.26.838 1.633 1.35-.7.372-1.306.884-1.82 1.536A6.35 6.35 0 004.9 3.747c.42-.605 1.027-1.35 1.96-1.769zm2.8 10.52a6.258 6.258 0 01-5.32 0A5.3 5.3 0 011.4 7.75c0-1.164.327-2.327.887-3.351 1.493.186 2.846.884 3.92 1.908.046.093.093.14.186.186C7.467 7.611 8.12 9.1 8.26 10.776a.754.754 0 00.747.652.753.753 0 00.653-.745C9.52 8.82 8.773 7.192 7.7 5.888c.887-1.164 2.24-1.908 3.733-1.908a6.519 6.519 0 011.214 3.817 5.414 5.414 0 01-2.987 4.701z" fill="#FFF" fill-rule="nonzero"/>
</svg>
