<svg width="24" height="24" xmlns="http://www.w3.org/2000/svg"><g fill="#282828" fill-rule="nonzero"><path d="M8.089 2.73a10.042 10.042 0 00-3.205 2.16 10.042 10.042 0 00-2.952 7.128 10.042 10.042 0 002.952 7.129 10.042 10.042 0 007.129 2.952 10.042 10.042 0 007.129-2.952 10.042 10.042 0 002.951-7.129 10.042 10.042 0 00-2.952-7.129 10.042 10.042 0 00-7.128-2.951 10.01 10.01 0 00-3.924.791zM12.013.495c6.363 0 11.522 5.16 11.522 11.522 0 6.363-5.16 11.522-11.522 11.522C5.65 23.54.49 18.38.49 12.018.491 5.655 5.651.496 12.013.496z"/><path d="M12 8a.8.8 0 01.8.8v2.4h2.4a.8.8 0 110 1.6h-2.401l.001 2.4a.8.8 0 11-1.6 0l-.001-2.4H8.8a.8.8 0 110-1.6h2.399l.001-2.4A.8.8 0 0112 8z"/></g></svg>
