<svg t="1608802108906" class="icon" viewBox="0 0 1024 1024" version="1.1" xmlns="http://www.w3.org/2000/svg" p-id="754" xmlns:xlink="http://www.w3.org/1999/xlink" width="24" height="24"><defs><style type="text/css"></style></defs><path d="M512 1017.85067989C232.61866972 1017.85067989 6.14932011 791.38133028 6.14932011 512S232.61866972 6.14932011 512 6.14932011s505.85067989 226.4693496 505.85067989 505.85067989-226.4693496 505.85067989-505.85067989 505.85067989z m0-60.70208154a445.14859835 445.14859835 0 1 0 0-890.2971967 445.14859835 445.14859835 0 0 0 0 890.2971967zM233.78212588 309.65972781h101.17013669v101.17013669h-101.17013669V309.65972781z m151.75520385 0h101.17013668v101.17013669h-101.17013668V309.65972781z m151.75520386 0h101.17013668v101.17013669h-101.17013668V309.65972781z m151.75520384 0h101.17013669v101.17013669h-101.17013669V309.65972781z m-455.26561155 151.75520385h101.17013669v101.17013668h-101.17013669v-101.17013668z m151.75520385 0h101.17013668v101.17013668h-101.17013668v-101.17013668zM360.24479616 663.75520384h303.51040768v101.17013551H360.24479616v-101.17013551z m177.04773743-202.34027218h101.17013668v101.17013668h-101.17013668v-101.17013668z m151.75520384 0h101.17013669v101.17013668h-101.17013669v-101.17013668z" fill="#282828" p-id="755"></path></svg>
