<svg width="24" height="24" xmlns="http://www.w3.org/2000/svg"><g fill="#282828" fill-rule="nonzero"><path d="M23.058 7.329a11.96 11.96 0 00-2.574-3.813A11.979 11.979 0 0012 0c-1.62 0-3.192.316-4.671.942a11.922 11.922 0 00-3.813 2.574A11.979 11.979 0 000 12c0 1.62.316 3.192.942 4.671a11.922 11.922 0 002.574 3.813 11.979 11.979 0 003.813 2.571c1.479.626 3.051.943 4.671.943s3.192-.317 4.671-.943a11.915 11.915 0 003.813-2.57 11.979 11.979 0 002.571-3.814c.626-1.479.943-3.051.943-4.671s-.314-3.192-.94-4.671zm-1.296 8.794a10.584 10.584 0 01-2.271 3.368 10.584 10.584 0 01-3.368 2.27 10.51 10.51 0 01-4.123.833 10.51 10.51 0 01-4.123-.832A10.584 10.584 0 014.51 19.49a10.584 10.584 0 01-2.27-3.368A10.51 10.51 0 011.405 12c0-1.43.28-2.817.832-4.123A10.584 10.584 0 014.51 4.51a10.584 10.584 0 013.368-2.27A10.51 10.51 0 0112 1.405c1.43 0 2.817.28 4.123.832A10.584 10.584 0 0119.49 4.51a10.584 10.584 0 012.27 3.368A10.51 10.51 0 0122.595 12c0 1.43-.28 2.817-.832 4.123z"/><path d="M6.188 9.75a.705.705 0 00-.704.703v3.094c0 .387.317.703.704.703a.705.705 0 00.703-.703v-3.094a.705.705 0 00-.703-.703zm2.906-1.5a.705.705 0 00-.703.703v6.094c0 .387.316.703.703.703a.705.705 0 00.703-.703V8.953a.705.705 0 00-.703-.703zM12 6a.705.705 0 00-.703.703v10.594c0 .387.316.703.703.703a.705.705 0 00.703-.703V6.703A.705.705 0 0012 6zm5.813 3.75a.705.705 0 00-.704.703v3.094c0 .387.317.703.704.703a.705.705 0 00.703-.703v-3.094a.705.705 0 00-.703-.703zm-2.907-1.5a.705.705 0 00-.703.703v6.094c0 .387.317.703.703.703a.705.705 0 00.703-.703V8.953a.705.705 0 00-.703-.703z"/></g></svg>
