<svg width="24" height="24" xmlns="http://www.w3.org/2000/svg"><path d="M12.013 1.938A10.042 10.042 0 004.884 4.89a10.042 10.042 0 00-2.952 7.128 10.042 10.042 0 002.952 7.129 10.042 10.042 0 007.129 2.952 10.042 10.042 0 007.129-2.952 10.042 10.042 0 002.951-7.129 10.042 10.042 0 00-2.952-7.129 10.042 10.042 0 00-7.128-2.951m0-1.442c6.363 0 11.522 5.16 11.522 11.522 0 6.363-5.16 11.522-11.522 11.522C5.65 23.54.49 18.38.49 12.018.491 5.655 5.651.496 12.013.496zm0 17.694h-.026a5.802 5.802 0 01-4.3-2.15.723.723 0 01.106-1.013.723.723 0 011.013.105 4.37 4.37 0 003.207 1.617 4.37 4.37 0 003.207-1.617.72.72 0 011.119.908 5.802 5.802 0 01-4.3 2.15h-.026zm-4.27-7.366A1.444 1.444 0 016.3 9.384c0-.797.64-1.442 1.436-1.442h.01a1.442 1.442 0 11-.002 2.882zm8.56 0a1.444 1.444 0 01-1.444-1.44c0-.797.64-1.442 1.436-1.442h.01a1.442 1.442 0 11-.002 2.882z" fill="#282828" fill-rule="nonzero"/></svg>
