<svg width="11" height="16" xmlns="http://www.w3.org/2000/svg"><g fill="none" fill-rule="evenodd"><path d="M7.333 14.478A9.59 9.59 0 009.834 8a9.59 9.59 0 00-2.496-6.473" stroke="#242424" stroke-width="1.412" stroke-linecap="round" stroke-linejoin="round"/><path d="M5.262 11.797A7.069 7.069 0 006.36 8a7.069 7.069 0 00-1.098-3.797" stroke="#242424" stroke-width="1.412" stroke-linecap="round"/><path d="M2.383 5.421A3.533 3.533 0 013.493 8a3.533 3.533 0 01-1.11 2.579.458.458 0 01-.117-.085l-.003-.003L.145 8.355a.504.504 0 010-.71l2.118-2.136.07-.059z" fill="#242424"/></g></svg>
