<svg width="200" height="200" xmlns="http://www.w3.org/2000/svg" xmlns:xlink="http://www.w3.org/1999/xlink"><defs><path id="prefix__a" d="M0 0h200v200H0z"/></defs><g fill="none" fill-rule="evenodd"><mask id="prefix__b" fill="#fff"><use xlink:href="#prefix__a"/></mask><use fill="#F0F0F0" fill-rule="nonzero" xlink:href="#prefix__a"/><g mask="url(#prefix__b)"><g transform="translate(-10)"><circle fill="#FFF" cx="110" cy="247.5" r="110"/><path fill="#FFF" fill-rule="nonzero" d="M94.913 129.191h30.153v20.842H94.913z"/><path d="M149.64 86.242c0 24.541-17.62 44.435-39.356 44.435s-39.356-19.894-39.356-44.435c0-24.54 17.62-44.435 39.356-44.435s39.356 19.895 39.356 44.435" fill="#FFF" fill-rule="nonzero"/><path d="M95.194 134.915s-3.38-.757-2.576 4.306c.887 5.57 17.55 52.476 17.55 52.476l17.628-50.242s1.61-6.7-2.475-6.16l-15.154 13.018-14.973-13.398z" fill="#D9D9D9" fill-rule="nonzero"/><path d="M116.265 174.351s-3.341-15.072-3.462-15.67c-.12-.599 1.087-2.274 1.087-3.23 0-.957-.846-1.555-1.932-2.752-1.087-1.196-1.932-3.549-1.932-3.549v.115c-.1.272-.896 2.376-1.912 3.494-1.087 1.196-1.932 1.794-1.932 2.751 0 .958 1.208 2.632 1.087 3.23-.12.598-3.14 15.192-3.14 15.192l6.158 17.884-.12-.12 6.098-17.345z" fill="#BFBFBF" fill-rule="nonzero"/><path d="M75.902 88.847c0 3.669-2.706 6.644-6.046 6.644-3.34 0-6.046-2.975-6.046-6.644s2.707-6.644 6.046-6.644c3.34 0 6.046 2.975 6.046 6.644m80.774-.082c0 3.67-2.707 6.644-6.047 6.644s-6.046-2.975-6.046-6.644 2.707-6.643 6.046-6.643c3.34 0 6.047 2.974 6.047 6.643" fill="#FFF" fill-rule="nonzero"/><path d="M132.27 56.292s10.994 5.01 3.518 8.713c-6.816 1.96-20.887.653-27.483-.218s-24.955-6.97-24.955-6.97l.55 4.465s13.895 5 25.504 6.643c11.543 1.634 24.405 3.268 29.902-.87 4.837-3.05 3.518-8.278 3.518-8.278s6.046-.653 6.705-1.96l-1.978-3.703s-2.308 1.306-15.28 2.178" fill="#E6E6E6" fill-rule="nonzero"/><path d="M134.835 38.757s18.176-8.131-4.397-11.907-46.025 8.132-51.595 20.33c0 0-9.967-1.743-12.02 19.168 0 12.779 2.053 15.974 2.053 15.974s3.15-.872 2.931 7.406c0 0 2.419 2.83 3.518-.218 0 0 .66-5.664-.22-7.406 0 0 9.674-5.228 8.795-23.743 0 0 10.333 5.01 26.164 6.753 15.83 1.742 25.064.218 25.064.218s0 10.02 8.795 16.337l-.44 7.187s.22 1.525 1.759 1.525c1.54 0 1.76-2.396 1.76-2.396s-.22-5.228 3.297-5.881c0 0 4.178-15.683-1.1-27.881 0 0 7.256-2.832 4.178-9.585-3.077-6.752-18.542-5.88-18.542-5.88" fill="#D9D9D9" fill-rule="nonzero"/><path d="M94.993 127.28s5.715 2.95 14.007 2.95c9.74.399 16.1-2.871 16.1-2.871v2.95s-10.707 5.743-15.537 5.743-14.65-6.779-14.65-6.779l.08-1.994z" fill="#E6E6E6" fill-rule="nonzero"/><path d="M151.896 176.78h-7.13a1.682 1.682 0 01-1.692-1.668c0-.92.759-1.668 1.691-1.668h3.75v-6.138c0-.92.758-1.669 1.69-1.669.933 0 1.69.749 1.69 1.669v9.474zm-15.658 0h-7.132v-9.474c0-.92.759-1.669 1.691-1.669s1.69.749 1.69 1.67v6.137h3.75c.933 0 1.69.748 1.69 1.668a1.68 1.68 0 01-1.69 1.668z" fill="#BFBFBF" fill-rule="nonzero"/><path d="M150.465 57.85l-.503-1.678-.762-1.95s-3.957 1.198-16.93 2.07c0 0 10.994 5.01 3.518 8.713-.225.065-.46.126-.702.183.174 1.27.448 3 .814 4.503 1.319-.399 2.471-.932 3.406-1.636 4.837-3.05 3.518-8.278 3.518-8.278s6.981-.62 7.641-1.927z" fill="#CCC" fill-rule="nonzero"/><path d="M79.922 174.267c6.041 0 10.956-4.848 10.956-10.807 0-5.046-3.525-9.295-8.274-10.478a2.44 2.44 0 00.025-.326v-12.03a103.07 103.07 0 00-5 1.408c-.008.343-.013.683-.013 1.015v9.607c0 .08.005.16.012.238-4.943 1.043-8.66 5.383-8.66 10.567 0 5.958 4.913 10.806 10.954 10.806zm0-16.4c3.126 0 5.67 2.51 5.67 5.593 0 3.084-2.544 5.593-5.67 5.593-3.125 0-5.67-2.509-5.67-5.593 0-3.083 2.544-5.592 5.67-5.592zm72.716 8.463v-2.44c0-5.745-4.173-10.544-9.684-11.61v-8.923a102.765 102.765 0 00-5.28-1.471v10.502c-5.264 1.249-9.189 5.93-9.189 11.503v2.439c0 1.323 1.09 2.4 2.433 2.4 1.34 0 2.432-1.077 2.432-2.4v-2.44c0-3.877 3.198-7.033 7.129-7.033h.165c3.93 0 7.129 3.156 7.129 7.034v2.439c0 1.323 1.091 2.4 2.432 2.4 1.342 0 2.433-1.077 2.433-2.4z" fill="#D9D9D9" fill-rule="nonzero"/></g></g></g></svg>
