<svg width="18" height="18" xmlns="http://www.w3.org/2000/svg">
    <title>
        矩形
    </title>
    <path d="M15.945 15.237l-2.395-2.56a6.475 6.475 0 001.504-4.156C15.054 4.926 12.126 2 8.527 2S2 4.925 2 8.52c0 3.596 2.928 6.521 6.527 6.521a6.488 6.488 0 002.702-.583.501.501 0 10-.416-.913 5.526 5.526 0 01-7.81-5.024 5.526 5.526 0 015.524-5.518 5.527 5.527 0 015.523 5.518 5.487 5.487 0 01-1.539 3.82.502.502 0 00.014.71c.015.014.035.02.052.032.013.02.02.044.037.062l2.597 2.775a.497.497 0 00.71.024.5.5 0 00.023-.707z" fill="#333" fill-rule="nonzero"/>
</svg>
