<svg width="28" height="28" xmlns="http://www.w3.org/2000/svg">
    <path d="M14 3c4.87 0 8.886 3.737 9.362 8.509 1.239.398 2.138 1.587 2.138 2.991h0v2.09c0 1.392-.882 2.572-2.104 2.982a1.11 1.11 0 01-.023.448C22.46 23.54 19.44 26 16.029 26c-.543 0-.984-.473-.984-1.055 0-.583.441-1.056.984-1.056 2.452 0 4.63-1.711 5.38-4.193l.039-.14c-1.198-.424-2.058-1.591-2.058-2.965h0V14.5c0-1.345.825-2.493 1.984-2.938-.44-3.696-3.58-6.57-7.374-6.57-3.794 0-6.933 2.874-7.375 6.57 1.16.445 1.985 1.593 1.985 2.938h0v2.09c0 1.733-1.368 3.137-3.055 3.137S2.5 18.323 2.5 16.591h0V14.5c0-1.404.899-2.593 2.139-2.993C5.114 6.737 9.13 3 14 3zM5.555 13.455c-.562 0-1.018.469-1.018 1.045h0v2.09c0 .577.456 1.046 1.018 1.046s1.018-.469 1.018-1.045h0V14.5c0-.576-.456-1.045-1.018-1.045zm16.89 0c-.562 0-1.018.469-1.018 1.045h0v2.09c0 .577.456 1.046 1.018 1.046s1.018-.469 1.018-1.045h0V14.5c0-.576-.456-1.045-1.018-1.045z" stroke="#FFF" stroke-width=".25" fill="#242424" fill-rule="evenodd"/>
</svg>
