<svg width="71" height="71" xmlns="http://www.w3.org/2000/svg" xmlns:xlink="http://www.w3.org/1999/xlink">
    <defs>
        <filter x="-28%" y="-20%" width="156%" height="156%" filterUnits="objectBoundingBox" id="prefix__a">
            <feOffset dy="4" in="SourceAlpha" result="shadowOffsetOuter1"/>
            <feGaussianBlur stdDeviation="4" in="shadowOffsetOuter1" result="shadowBlurOuter1"/>
            <feComposite in="shadowBlurOuter1" in2="SourceAlpha" operator="out" result="shadowBlurOuter1"/>
            <feColorMatrix values="0 0 0 0 0.0156862745 0 0 0 0 0.878431373 0 0 0 0 0.592156863 0 0 0 0.16 0" in="shadowBlurOuter1"/>
        </filter>
        <filter x="-68.4%" y="-50%" width="236.8%" height="218.2%" filterUnits="objectBoundingBox" id="prefix__e">
            <feOffset dy="2" in="SourceAlpha" result="shadowOffsetOuter1"/>
            <feGaussianBlur stdDeviation="4" in="shadowOffsetOuter1" result="shadowBlurOuter1"/>
            <feColorMatrix values="0 0 0 0 0.0156862745 0 0 0 0 0.878431373 0 0 0 0 0.592156863 0 0 0 0.2 0" in="shadowBlurOuter1"/>
        </filter>
        <path d="M31.81 10h6.38c6.506 0 9.668.835 12.602 2.404a16.356 16.356 0 016.804 6.804C59.165 22.142 60 25.304 60 31.81v6.38c0 6.506-.835 9.668-2.404 12.602a16.356 16.356 0 01-6.804 6.804C47.858 59.165 44.696 60 38.19 60h-6.38c-6.506 0-9.668-.835-12.602-2.404a16.356 16.356 0 01-6.804-6.804C10.835 47.858 10 44.696 10 38.19v-6.38c0-6.506.835-9.668 2.404-12.602a16.356 16.356 0 016.804-6.804C22.142 10.835 25.304 10 31.81 10z" id="prefix__b"/>
        <path d="M15 0a4 4 0 014 4v14a4 4 0 01-4 4H4a4 4 0 01-4-4V4a4 4 0 014-4h11zm-.5 15h-10a1 1 0 000 2h10a1 1 0 000-2zm0-5h-10a1 1 0 000 2h10a1 1 0 000-2zm-5-5h-5a1 1 0 100 2h5a1 1 0 000-2z" id="prefix__d"/>
        <radialGradient cx="50%" cy="50%" fx="50%" fy="50%" r="50%" id="prefix__c">
            <stop stop-color="#04D591" offset=".048%"/>
            <stop stop-color="#04E683" offset="100%"/>
        </radialGradient>
    </defs>
    <g fill="none" fill-rule="evenodd">
        <g transform="translate(1)">
            <use fill="#000" filter="url(#prefix__a)" xlink:href="#prefix__b"/>
            <path stroke-opacity=".08" stroke="#000" stroke-width=".25" d="M38.19 10.125c6.474 0 9.623.828 12.543 2.39a16.232 16.232 0 016.753 6.752c1.561 2.92 2.389 6.069 2.389 12.543h0v6.38c0 6.474-.828 9.623-2.39 12.543a16.232 16.232 0 01-6.752 6.753c-2.92 1.561-6.069 2.389-12.543 2.389h0-6.38c-6.474 0-9.623-.828-12.543-2.39a16.232 16.232 0 01-6.753-6.752c-1.561-2.92-2.389-6.069-2.389-12.543h0v-6.38c0-6.474.828-9.623 2.39-12.543a16.232 16.232 0 016.752-6.753c2.92-1.561 6.069-2.389 12.543-2.389h0z" stroke-linejoin="square" fill="url(#prefix__c)"/>
        </g>
        <g transform="translate(26.5 24)">
            <mask id="prefix__f" fill="#fff">
                <use xlink:href="#prefix__d"/>
            </mask>
            <use fill="#000" filter="url(#prefix__e)" xlink:href="#prefix__d"/>
            <use fill="#F7FCFB" xlink:href="#prefix__d"/>
            <path d="M17.5 0v16c0 3-1.333 4.5-4 4.5H.5V23h20V0h-3z" fill="#D6FFF1" mask="url(#prefix__f)"/>
        </g>
    </g>
</svg>
