<svg width="36" height="36" xmlns="http://www.w3.org/2000/svg"><g fill="none" fill-rule="evenodd" opacity=".6"><path d="M13.834 9.751l8.34 7.506a1 1 0 010 1.486l-8.34 7.506a.5.5 0 01-.834-.372V10.123a.5.5 0 01.834-.372z" fill="#FFF"/><path d="M25 24.003A9.956 9.956 0 0027.002 18c0-2.25-.744-4.328-1.999-6M30.23 27.002A15.926 15.926 0 0033.003 18c0-3.336-1.021-6.434-2.768-8.998" stroke="#FFF" stroke-width="1.25" stroke-linecap="round" stroke-linejoin="round"/><path d="M13 15C6.333 16 3 19.667 3 26c2.333-4.667 5.667-7 10-7v-4z" fill="#FFF"/></g></svg>
